<mxfile host="app.diagrams.net" modified="2022-05-27T13:03:08.789Z" agent="5.0 (Windows)" etag="br18M3YSE_K95z_eN_2c" version="18.1.1" type="github">
  <diagram id="JJtd6XLGk8ve8DbuQFBg" name="Page-1">
    <mxGraphModel dx="865" dy="439" grid="1" gridSize="10" guides="1" tooltips="1" connect="1" arrows="1" fold="1" page="1" pageScale="1" pageWidth="827" pageHeight="1169" math="0" shadow="0">
      <root>
        <mxCell id="0" />
        <mxCell id="1" parent="0" />
        <mxCell id="UvkSxiLxvOiANLwXY3r--1" value="" style="rounded=1;whiteSpace=wrap;html=1;" vertex="1" parent="1">
          <mxGeometry x="270" y="110" width="330" height="260" as="geometry" />
        </mxCell>
        <mxCell id="UvkSxiLxvOiANLwXY3r--13" value="" style="rounded=1;whiteSpace=wrap;html=1;" vertex="1" parent="1">
          <mxGeometry x="370" y="150" width="204" height="170" as="geometry" />
        </mxCell>
        <mxCell id="UvkSxiLxvOiANLwXY3r--11" value="" style="rounded=1;whiteSpace=wrap;html=1;" vertex="1" parent="1">
          <mxGeometry x="390" y="180" width="200" height="180" as="geometry" />
        </mxCell>
        <mxCell id="UvkSxiLxvOiANLwXY3r--8" value="" style="group" vertex="1" connectable="0" parent="1">
          <mxGeometry x="413" y="265" width="160" height="90" as="geometry" />
        </mxCell>
        <mxCell id="UvkSxiLxvOiANLwXY3r--4" value="DMA_SxNDTR" style="rounded=0;whiteSpace=wrap;html=1;" vertex="1" parent="UvkSxiLxvOiANLwXY3r--8">
          <mxGeometry y="60" width="80" height="30" as="geometry" />
        </mxCell>
        <mxCell id="UvkSxiLxvOiANLwXY3r--7" value="" style="group" vertex="1" connectable="0" parent="UvkSxiLxvOiANLwXY3r--8">
          <mxGeometry width="160" height="60" as="geometry" />
        </mxCell>
        <mxCell id="UvkSxiLxvOiANLwXY3r--2" value="DMA_SxPAR" style="rounded=0;whiteSpace=wrap;html=1;" vertex="1" parent="UvkSxiLxvOiANLwXY3r--7">
          <mxGeometry y="30" width="80" height="30" as="geometry" />
        </mxCell>
        <mxCell id="UvkSxiLxvOiANLwXY3r--3" value="DMA_SxCR" style="rounded=0;whiteSpace=wrap;html=1;" vertex="1" parent="UvkSxiLxvOiANLwXY3r--7">
          <mxGeometry width="80" height="30" as="geometry" />
        </mxCell>
        <mxCell id="UvkSxiLxvOiANLwXY3r--5" value="DMA_SxM0AR" style="rounded=0;whiteSpace=wrap;html=1;" vertex="1" parent="UvkSxiLxvOiANLwXY3r--7">
          <mxGeometry x="80" width="80" height="30" as="geometry" />
        </mxCell>
        <mxCell id="UvkSxiLxvOiANLwXY3r--6" value="DMA_SxM1AR" style="rounded=0;whiteSpace=wrap;html=1;" vertex="1" parent="UvkSxiLxvOiANLwXY3r--7">
          <mxGeometry x="80" y="30" width="80" height="30" as="geometry" />
        </mxCell>
        <mxCell id="UvkSxiLxvOiANLwXY3r--9" value="DMA 控制器： 0x40026000" style="text;html=1;strokeColor=none;fillColor=none;align=center;verticalAlign=middle;whiteSpace=wrap;rounded=0;" vertex="1" parent="1">
          <mxGeometry x="354" y="114" width="180" height="30" as="geometry" />
        </mxCell>
        <mxCell id="UvkSxiLxvOiANLwXY3r--10" value="&lt;div&gt;地址偏移：0&lt;/div&gt;&lt;div&gt;普遍配置项和状态&lt;br&gt;&lt;/div&gt;" style="rounded=1;whiteSpace=wrap;html=1;" vertex="1" parent="1">
          <mxGeometry x="280" y="170" width="80" height="60" as="geometry" />
        </mxCell>
        <mxCell id="UvkSxiLxvOiANLwXY3r--12" value="地址偏移：0x0010" style="text;html=1;strokeColor=none;fillColor=none;align=center;verticalAlign=middle;whiteSpace=wrap;rounded=0;" vertex="1" parent="1">
          <mxGeometry x="414" y="180" width="100" height="30" as="geometry" />
        </mxCell>
        <mxCell id="UvkSxiLxvOiANLwXY3r--14" value="地址偏移： 0x0028" style="text;html=1;strokeColor=none;fillColor=none;align=center;verticalAlign=middle;whiteSpace=wrap;rounded=0;" vertex="1" parent="1">
          <mxGeometry x="390" y="150" width="110" height="30" as="geometry" />
        </mxCell>
        <mxCell id="UvkSxiLxvOiANLwXY3r--16" value="&lt;div align=&quot;justify&quot;&gt;&lt;ul&gt;&lt;li&gt;源地&lt;/li&gt;&lt;li&gt;目的地址&lt;/li&gt;&lt;li&gt;长度&lt;br&gt;&lt;/li&gt;&lt;/ul&gt;&lt;/div&gt;" style="text;html=1;strokeColor=none;fillColor=none;align=center;verticalAlign=middle;whiteSpace=wrap;rounded=0;" vertex="1" parent="1">
          <mxGeometry x="375" y="210" width="110" height="50" as="geometry" />
        </mxCell>
        <mxCell id="UvkSxiLxvOiANLwXY3r--17" value="数据流2" style="rounded=0;whiteSpace=wrap;html=1;" vertex="1" parent="1">
          <mxGeometry x="290" y="265" width="60" height="20" as="geometry" />
        </mxCell>
        <mxCell id="UvkSxiLxvOiANLwXY3r--18" value="数据流1" style="rounded=0;whiteSpace=wrap;html=1;" vertex="1" parent="1">
          <mxGeometry x="290" y="322" width="60" height="20" as="geometry" />
        </mxCell>
        <mxCell id="UvkSxiLxvOiANLwXY3r--21" value="" style="endArrow=classic;html=1;rounded=0;exitX=0.004;exitY=0.845;exitDx=0;exitDy=0;exitPerimeter=0;entryX=1;entryY=0.5;entryDx=0;entryDy=0;" edge="1" parent="1" source="UvkSxiLxvOiANLwXY3r--11" target="UvkSxiLxvOiANLwXY3r--18">
          <mxGeometry width="50" height="50" relative="1" as="geometry">
            <mxPoint x="330" y="440" as="sourcePoint" />
            <mxPoint x="380" y="390" as="targetPoint" />
          </mxGeometry>
        </mxCell>
        <mxCell id="UvkSxiLxvOiANLwXY3r--22" value="" style="endArrow=classic;html=1;rounded=0;entryX=1;entryY=0.25;entryDx=0;entryDy=0;" edge="1" parent="1">
          <mxGeometry width="50" height="50" relative="1" as="geometry">
            <mxPoint x="370" y="273" as="sourcePoint" />
            <mxPoint x="350" y="273" as="targetPoint" />
          </mxGeometry>
        </mxCell>
        <mxCell id="UvkSxiLxvOiANLwXY3r--25" value="&lt;div&gt;系统&lt;br&gt;&lt;/div&gt;&lt;div&gt;总&lt;/div&gt;&lt;div&gt;线&lt;br&gt; &lt;/div&gt;" style="shape=partialRectangle;whiteSpace=wrap;html=1;bottom=0;top=0;fillColor=none;rotation=0;" vertex="1" parent="1">
          <mxGeometry x="190" y="180" width="20" height="160" as="geometry" />
        </mxCell>
        <mxCell id="UvkSxiLxvOiANLwXY3r--26" value="&lt;div&gt;外设&lt;/div&gt;&lt;div&gt;总&lt;/div&gt;&lt;div&gt;线&lt;br&gt; &lt;/div&gt;" style="shape=partialRectangle;whiteSpace=wrap;html=1;bottom=0;top=0;fillColor=none;rotation=0;" vertex="1" parent="1">
          <mxGeometry x="220" y="130" width="20" height="160" as="geometry" />
        </mxCell>
        <mxCell id="UvkSxiLxvOiANLwXY3r--27" value="" style="shape=flexArrow;endArrow=classic;startArrow=classic;html=1;rounded=0;exitX=0.993;exitY=0.869;exitDx=0;exitDy=0;exitPerimeter=0;entryX=0;entryY=0.808;entryDx=0;entryDy=0;entryPerimeter=0;width=3.6538461538461537;endSize=3.0134615384615384;startSize=3.0134615384615384;" edge="1" parent="1" target="UvkSxiLxvOiANLwXY3r--1">
          <mxGeometry width="100" height="100" relative="1" as="geometry">
            <mxPoint x="209.85999999999996" y="320.04" as="sourcePoint" />
            <mxPoint x="270" y="321.08" as="targetPoint" />
          </mxGeometry>
        </mxCell>
        <mxCell id="UvkSxiLxvOiANLwXY3r--30" value="" style="shape=flexArrow;endArrow=classic;startArrow=classic;html=1;rounded=0;exitX=1.029;exitY=0.688;exitDx=0;exitDy=0;exitPerimeter=0;entryX=0;entryY=0.5;entryDx=0;entryDy=0;width=4.8076923076923075;endSize=1.6615384615384616;startSize=2.1192307692307693;endWidth=10.03698224852071;startWidth=10.03698224852071;" edge="1" parent="1" source="UvkSxiLxvOiANLwXY3r--26" target="UvkSxiLxvOiANLwXY3r--1">
          <mxGeometry width="100" height="100" relative="1" as="geometry">
            <mxPoint x="219.8599999999999" y="330.03999999999996" as="sourcePoint" />
            <mxPoint x="280.0000000000001" y="330.08000000000015" as="targetPoint" />
          </mxGeometry>
        </mxCell>
      </root>
    </mxGraphModel>
  </diagram>
</mxfile>
